<svg id="Layer_1" data-name="Layer 1" xmlns="http://www.w3.org/2000/svg" viewBox="0 0 563.341 371.077"><defs><style>.cls-1{fill:#e8f0fc;}.cls-2{fill:#ffb454;}.cls-3{fill:#67cdff;}.cls-4{fill:#ffd41d;}.cls-5{fill:#5a6a92;}.cls-6{fill:#f4f7f9;}.cls-7{fill:#68a5c4;}.cls-21,.cls-8,.cls-9{fill:none;}.cls-21,.cls-8{stroke:#000;stroke-linecap:round;}.cls-8{stroke-linejoin:round;stroke-width:0.5px;}.cls-10{fill:#fcd1b9;}.cls-11{fill:#141414;}.cls-12{fill:#333;}.cls-13{fill:#ffba55;}.cls-14{fill:#191919;}.cls-15{fill:#e89329;}.cls-16{fill:#5e1212;}.cls-17{fill:#d3aa97;}.cls-18{fill:#6e7d9f;}.cls-19{fill:#2c364c;}.cls-20{fill:#455a85;}.cls-21{stroke-miterlimit:10;stroke-width:2px;}.cls-22{fill:#253d6d;}.cls-23{fill:#00e1ff;}.cls-24{fill:#bdf9fd;}</style></defs><title>lady</title><path class="cls-1" d="M1216.934,341H776.34a49.053,49.053,0,0,1,2.858,16.486c0,29.2-25.682,52.881-57.363,52.881a62.329,62.329,0,0,1-11.077-1V621.681a57.333,57.333,0,0,0,57.165,57.165h449.011a57.333,57.333,0,0,0,57.165-57.165V398.165A57.333,57.333,0,0,0,1216.934,341Z" transform="translate(-710.758 -341)"/><path class="cls-2" d="M779.2,357.486A49.053,49.053,0,0,0,776.34,341h-8.417a57.333,57.333,0,0,0-57.165,57.165v11.207a62.329,62.329,0,0,0,11.077,1C753.516,410.367,779.2,386.691,779.2,357.486Z" transform="translate(-710.758 -341)"/><rect class="cls-3" y="250.707" width="563.341" height="120.37" rx="36"/><rect class="cls-4" x="96.791" y="129.89" width="48.659" height="141.626" rx="24.33"/><polygon class="cls-5" points="138.383 134.607 138.614 130.991 105.514 131.424 105.283 135.039 138.383 134.607"/><rect class="cls-6" x="64.22" y="261.89" width="453.626" height="60.659" rx="12"/><rect class="cls-7" x="44.703" y="257.67" width="481.055" height="12.659" rx="6.33"/><rect class="cls-7" x="195.033" y="139.516" width="10.022" height="219.956" rx="5.011"/><rect class="cls-7" x="299.868" y="139.912" width="10.022" height="219.956" rx="5.011"/><rect class="cls-7" x="199.78" y="284.835" width="106.813" height="6.725" rx="3.363"/><rect class="cls-7" x="198.198" y="336.659" width="106.813" height="6.725" rx="3.363"/><path class="cls-8" d="M1045.288,503.383l-1.339-2c-.347-.52-8.1-13.031,27.6-39.143,2.961-2.489,6.424-5.681,6.762-6.428l1.912.582c-.373,1.334-4.823,5.221-7.442,7.419-22.012,16.1-26.925,26.616-27.641,32.046,3.352-9.009,10.337-14.015,18.251-19.685,1.113-.8,2.252-1.614,3.41-2.462A259.86,259.86,0,0,0,1088.53,455.4l1.379,1.448a261.974,261.974,0,0,1-21.923,18.479c-1.164.851-2.307,1.671-3.427,2.473-9.23,6.614-16.521,11.839-18.8,23.224Z" transform="translate(-710.758 -341)"/><path class="cls-8" d="M1078.6,456.987a14.878,14.878,0,0,1-5.013-.847c-10.11-3.592-34.819-27.463-35.866-28.477l1.392-1.436c.253.245,25.441,24.581,35.144,28.028,9.345,3.321,19.59-5.9,19.693-5.993l1.35,1.476C1094.919,450.087,1087.248,456.987,1078.6,456.987Z" transform="translate(-710.758 -341)"/><path class="cls-8" d="M1095.222,450.1c3.372,1.188,9,5.342,11.262,7.07,2.615-2.532,12.609-12.04,18.578-15.376a48.973,48.973,0,0,0,6.065-3.709,2.315,2.315,0,0,0,.006-.277,14.361,14.361,0,0,0-4.438-2.664C1118.958,434.52,1099.581,446.325,1095.222,450.1Z" transform="translate(-710.758 -341)"/><path class="cls-8" d="M1010.143,432.6a4.311,4.311,0,0,1,2.17.5c3.509,2.025,14.973,6.078,17.485,2.649,2.086-2.845-2.376-12.288-5.679-17.572l.452-.282c-11.991-8.25-29.013-18.141-37.208-14.447a37.663,37.663,0,0,0,15.919,31.226C1004.57,434.014,1007.624,432.6,1010.143,432.6Z" transform="translate(-710.758 -341)"/><path class="cls-8" d="M1084.286,504.989c-.043-.2-4.383-19.849-17.174-22.7a219.757,219.757,0,0,0-22.3-3.938l.208-1.989a221.475,221.475,0,0,1,22.532,3.975c14.047,3.137,18.511,23.38,18.694,24.24Z" transform="translate(-710.758 -341)"/><path class="cls-8" d="M1078.214,518.306c-.195-.012-19.667-1.2-29.609-2.513-7.492-.985-8.807-.43-8.932-.364a.8.8,0,0,0,.285-.823L1038,515a1.168,1.168,0,0,1,.314-1.017c.388-.416,1.3-1.389,10.556-.17,9.871,1.3,29.274,2.487,29.468,2.5Z" transform="translate(-710.758 -341)"/><path class="cls-9" d="M994.831,471.844c4.331-1.749,38.19-15.4,44.771-17.469a39.215,39.215,0,0,1,12.208-2.022c.33.025,28.961,2.376,34.413,2.57,5.922.212,12.377,11.125,13.093,12.369l.088.152.031.173c.061.346,6.146,34.7,7.321,41.746,1.14,6.846,2.036,9.126,5.985,15.249,4.12,6.386.69,26.748.541,27.612-2.045,14.138-4.479,36.491-2.787,40.012,2.216,4.612.159,7.746-1.238,8.76l-.276.2-4.045-.119c-.462,1.626-1.571,5.491-2.236,7.588a2.991,2.991,0,0,1-1.9,2.232,2.105,2.105,0,0,1-.565.078,2.808,2.808,0,0,1-1.719-.676l-.373-.33.039-.5c.389-4.99.564-10.811.248-12.675a28.481,28.481,0,0,0-4.724,4.162L1091,608.2l-.162.157c-2.8,2.72-3.8,2.069-4.131,1.856-1.112-.724-.5-2.406-.2-3.215a72.353,72.353,0,0,0,2.443-8.127,21.9,21.9,0,0,0-3.86,8.064c-.608,3.213-1.785,3.932-3.367,4.025a1.36,1.36,0,0,1-1.084-.414c-.66-.68-.7-2.142-.6-3.289a6.2,6.2,0,0,1,.06-1.172,16.832,16.832,0,0,1-1.092,1.312c-.518.557-1.735,1.863-2.867,1.224-.327-.184-1.32-.747-.359-4.078a39.6,39.6,0,0,1,2.834-5.81l.08-.11,3.9-4.653.2-.094a28.749,28.749,0,0,1,7.628-2.264c6.21-.7,7.678-2.3,7.729-2.863-2.219-7.175-2.528-53.558-2.55-57.286-3.341-9.4-8.415-22.75-10.057-25.347-1.553,1.478-5.181,8.408-5.761,9.829-.05,1.376.334,12.339,3.628,16.575,3.726,4.789,7.231,12.668,7.378,13l-1.828.809c-.035-.08-3.556-7.989-7.128-12.582-3.988-5.128-4.123-17.732-4.012-18.237.093-.414,4.667-9.9,6.972-11.325a1.587,1.587,0,0,1,1.236-.242c.575.143,2.1.525,11.514,27.009l.057.16v.169c0,.5.289,50.358,2.487,56.953a2.409,2.409,0,0,1-.448,1.99c-1.177,1.7-4.2,2.833-8.993,3.375a26.612,26.612,0,0,0-6.811,2l-3.567,4.254a38.953,38.953,0,0,0-2.6,5.33c-.082.29-.154.621-.208.931.024-.026.05-.052.076-.081a25.64,25.64,0,0,0,4.011-6.539l1.891.635a43.5,43.5,0,0,0-1.425,6.9l.05.178-.029.127a7.937,7.937,0,0,0,.014,1.556c.394-.154.756-.64,1.074-2.324.5-2.666,3.887-10.771,7.28-10.877l1.224-.039-.207,1.207a67.959,67.959,0,0,1-3.038,10.833c-.027.071-.05.139-.073.2a12.546,12.546,0,0,0,.972-.817l2.686-7.193.139-.148c5.317-5.629,6.713-5.194,7.167-5.046.741.233,1.973.621.945,14.289a.233.233,0,0,0,.043,0c.091-.027.319-.251.528-.91.843-2.657,2.414-8.221,2.431-8.277l.212-.751,4.87.144c.6-.605,2.071-2.566.385-6.073-2.5-5.2,2.084-37.523,2.616-41.192.975-5.7,2.824-21.455-.246-26.215-4.1-6.347-5.093-8.89-6.279-16-1.13-6.774-6.813-38.878-7.287-41.552-1.882-3.215-7.325-11.074-11.346-11.218-5.5-.2-33.282-2.477-34.462-2.574h0a38.14,38.14,0,0,0-11.487,1.936c-6.806,2.139-44.643,17.423-45.024,17.577l-.441.178-.416-.228a8.7,8.7,0,0,0-6.561-.3c-3.585,1.215-6.691,4.6-9.236,10.047,1.323,2.048,8.092,10.553,24.931,2.133l1.406-.7.041,1.572c.242,9.416,1.179,20.177,2.32,22.361.718-1.3,1.207-6.426,1.07-11.678l-.024-.942.939-.08a2.1,2.1,0,0,1,1.588.69c1.848,1.8,2.545,6.762,2.073,14.744a8.885,8.885,0,0,0,.2.875c.041-.105.083-.223.128-.355l1.231-3.61.7,3.75a19.482,19.482,0,0,0,.453,1.9c.077-.386.159-.878.242-1.5a93.422,93.422,0,0,0,.784-14.658l-.023-.5.383-.317a1.805,1.805,0,0,1,1.871-.255c1.285.571,1.931,2.506,2.091,6.273a44.862,44.862,0,0,0,.033,6.363.629.629,0,0,0,.08,0c.082-.09.756-.968.756-7.111a21.5,21.5,0,0,0-1.005-6.415q-.286-.339-.595-.711l1.27-1.5a2.588,2.588,0,0,1,.893.966c1.033,1.206,2.159,2.418,2.967,3.174a25.209,25.209,0,0,0-.767-2.884c-.562-.853-4.294-6.516-7.648-11.258-3.82-5.4-4.875-6.4-5.134-6.579-.391-.127-.914-.313-1.5-.52a42.44,42.44,0,0,0-4.1-1.307q-.414-.012-.773-.016l-.371-1.923a2.362,2.362,0,0,1,1.3-.057c4.109.123,18.732.912,22.136,5.923l-1.654,1.124c-1.712-2.52-7.909-3.859-13.478-4.516a54.512,54.512,0,0,1,5.206,6.716c3.639,5.147,7.719,11.364,7.759,11.426l.112.232c1.006,3.015,1.27,4.949.784,5.747a1.251,1.251,0,0,1-.883.6c-.338.052-.928.145-2.781-1.642.172,1.307.237,2.565.261,3.395,0,6.4-.694,7.926-1.444,8.625a2.028,2.028,0,0,1-1.657.5,1.071,1.071,0,0,0-.143-.007,1.1,1.1,0,0,1-.946-.248c-.343-.286-1.057-.883-.677-8.1a19.175,19.175,0,0,0-.286-2.752,98.429,98.429,0,0,1-.839,12.481c-.369,2.766-.831,4.374-2.1,4.406-.41.016-1.22.036-1.973-2.336a1.344,1.344,0,0,1-.839.2c-1-.089-1.678-1.227-2.01-3.383l-.017-.105.007-.107c.375-6.222-.046-9.585-.555-11.392-.053,3.738-.411,9.053-1.961,10.419a1.74,1.74,0,0,1-1.434.439c-1.209-.186-2.466-1.329-3.392-12.825-.322-4-.494-8.014-.571-10.136-19.361,8.922-26.372-3.935-26.441-4.069l-.226-.432.2-.443m29.194-7.794Z" transform="translate(-710.758 -341)"/><path class="cls-8" d="M1041.505,552.107c-1.385-5.361.23-7.982.988-8.861.266-3.51.6-11.983-.7-14.386-1.826-3.382-3.2-9.624-3.261-9.888l-.026-.119,0-.123c.16-5.665-.756-7.341-.907-7.578-6.837-5.767-8.726-12.536-5.462-19.584,1.725-3.729,5.605-7.714,8.438-10.624a28,28,0,0,0,3.07-3.423,1.62,1.62,0,0,0,.084-.169,3.685,3.685,0,0,0-1.239-.062c-.094.019-15.3,2.742-24.348,6.914l-.838-1.817c9.282-4.281,24.262-6.963,24.9-7.075.622-.075,2.523-.2,3.286.939a2.035,2.035,0,0,1-.1,2.25,25.638,25.638,0,0,1-3.381,3.838c-2.733,2.807-6.474,6.651-8.057,10.07-2.894,6.252-1.21,12.065,5.01,17.275.444.421,1.724,2.183,1.548,8.977.2.867,1.477,6.354,3.041,9.249,1.867,3.457,1.013,14.6.909,15.854l-.036.431-.339.27s-2.016,1.828-.644,7.142Z" transform="translate(-710.758 -341)"/><path class="cls-8" d="M895.405,597.131c1.73,1.817,7.446,6.133,18.927.091,1.375-1.832,11.742-15.235,21.568-16.217,8.88-.888,8.14-10.507,8.1-10.916a7.024,7.024,0,0,0-.286-2.105,1.175,1.175,0,0,1-1.077-.787c-.39-1.119-.759-2.175,31.737-27.98.143-.1,9.717-7,11.631-21.349l.441-3.308,1.45,3.005c.14.289,14.03,28.951,22.807,37.728,7.647,7.644,36.342-1.908,41.982-3.887-2.753-6.729-20.94-47.692-61.428-64.161-.152-.067-10.417-4.208-31.429,27.31-21.738,32.607-28.8,43.666-28.868,43.773,0,.006-7.522,11.631-11.281,17.368-.424.647-.912,1.412-1.452,2.256-5.187,8.121-10.146,15.439-13.8,15.78A24.78,24.78,0,0,0,895.405,597.131Z" transform="translate(-710.758 -341)"/><path class="cls-10" d="M1073.6,455.09c-7.08-.53-15.11-1.18-19.17-1.51l0-.131c-.017-.083-1.676-8.627-1.191-11.081a.719.719,0,0,0-.1-.632l.67-.782c9.176,7.838,15.83,12.588,19.791,14.117Z" transform="translate(-710.758 -341)"/><path class="cls-10" d="M1053.82,440.96c7.13,6.1,15.04,12.29,19.78,14.12-7.08-.53-15.11-1.18-19.17-1.51l.01-.12s-1.68-8.6-1.19-11.08a.721.721,0,0,0-.1-.64Z" transform="translate(-710.758 -341)"/><path class="cls-11" d="M903.623,601.323c-6.676,0-9.6-4.274-9.631-4.317,1.975-1.986,7.76-4.035,10.347-4.276,3.463-.331,9.465-9.72,13.052-15.332.539-.842,1.027-1.607,1.451-2.253,3.75-5.741,11.27-17.361,11.27-17.361.069-.107,7.131-11.167,28.88-43.789,8.635-12.942,16.526-21.556,23.453-25.6a16.052,16.052,0,0,0,7.857,1.919,25.248,25.248,0,0,0,7.475-1.24c2.123,1.035,4.263,2.189,6.368,3.431.429,7.9,1.281,17.362,2.927,17.609a.692.692,0,0,0,.111.009.789.789,0,0,0,.567-.27c1.793-1.841,1.533-12.531,1.53-12.639a.31.31,0,0,1,.045,0,.926.926,0,0,1,.5.184c1.045.685,2.7,3.456,2.044,14.309,0,.023.4,2.531,1.129,2.531.355,0,.735-.587,1.131-1.745.026.04.749,3.881,1.536,3.881.439,0,.821-1.187,1.134-3.53a97.6,97.6,0,0,0,.81-10.858c.786.622,1.547,1.272,2.286,1.923-.067,1.83-.175,6.125.337,6.659a.151.151,0,0,0,.106.052,1.056,1.056,0,0,1,.224-.024c.065,0,.349.019.425.019.708,0,1.4-.509,1.672-4.2a128.493,128.493,0,0,1,20.849,25.335c.017.145.081.814.081.814a80.909,80.909,0,0,1-.12,11.122c-.029.026-2.462,2.051-1.071,7.867-11.849,1.469-22.709,3-32.287,4.561a.642.642,0,0,1-.119-.1c-8.9-8.9-22.862-37.713-23-38-1.959,14.83-11.886,21.934-11.985,22-21.488,17.064-31.763,25.848-31.411,26.856.044.126.236.126.4.126,1,0,1.01,2.887,1.01,3.01s.886,11.021-9.009,12.01-20.883,15.845-20.993,16A24.634,24.634,0,0,1,903.623,601.323Z" transform="translate(-710.758 -341)"/><path class="cls-11" d="M1019.89,503.91c-.07,1.79-.21,6.87.48,6.71s1.92.97,2.3-4.21a129.98,129.98,0,0,1,20.83,25.34c.03.26.05.53.08.81a80.385,80.385,0,0,1-.12,11.12s-2.48,1.98-1.07,7.87c-10.24,1.26-21.37,2.77-32.28,4.55a1,1,0,0,1-.11-.1c-9-9-23-38-23-38-2,15-12,22-12,22-34,27-32,27-31,27s1,3,1,3,1,11-9,12-21,16-21,16c-15,8-21-1-21-1,2-2,7.87-4.03,10.34-4.26,3.98-.38,11.22-12.57,14.51-17.59,3.75-5.74,11.27-17.36,11.27-17.36S937,547,959,514c10.27-15.39,18.06-22.45,23.45-25.6,3.23,1.79,8.18,2.91,15.33.68,2.19,1.07,4.31,2.22,6.36,3.43.37,6.88,1.2,17.35,2.93,17.61,2.57.4,2.22-12.91,2.22-12.91a.9.9,0,0,1,.53.19c.93.61,2.71,3.21,2.04,14.3,0,0,.79,5.15,2.28.79,0,0,1.58,8.51,2.67.35a97.1,97.1,0,0,0,.81-10.86C1018.39,502.61,1019.15,503.26,1019.89,503.91Z" transform="translate(-710.758 -341)"/><path class="cls-12" d="M1042.38,551.552c-1.4-5.828,1.049-7.861,1.074-7.88a81.695,81.695,0,0,0,.116-11.111,6.145,6.145,0,0,1,.867.672,126.6,126.6,0,0,1,8.881,17.043c-3.487.4-7.147.824-10.927,1.284h-.009Z" transform="translate(-710.758 -341)"/><path class="cls-12" d="M1053.31,550.28c-3.48.39-7.14.81-10.92,1.27-1.41-5.89,1.07-7.87,1.07-7.87a80.385,80.385,0,0,0,.12-11.12,8.727,8.727,0,0,1,.85.68A126.74,126.74,0,0,1,1053.31,550.28Z" transform="translate(-710.758 -341)"/><path class="cls-13" d="M1081.749,455.68c-1.69-.118-3.681-.263-5.822-.42l-2.328-.17c-3.965-1.531-10.621-6.282-19.786-14.122-8.136-6.98-15.329-13.941-15.4-14.01-.055-.045-5.605-4.6-13.119-9.77-8.436-5.811-20.425-13.135-29.636-15.028,7.2-.527,31.124-2.2,36.812-2.41l.02.39c.645-.037,1.323-.05,2.017-.05,16.746,0,44.676,7.682,44.956,7.76.51.191,50.906,19.113,52.627,29.559-1.114-1.6-5.123-3.223-5.164-3.24-.26-.025-.536-.039-.823-.039-8.548,0-27.13,11.417-31.646,15.368l-.175-.192c-1.407,1.2-6.514,5.212-12.53,6.374h0Z" transform="translate(-710.758 -341)"/><path class="cls-13" d="M1032.47,399.76l.01.38c16.62-.69,46.98,7.72,46.98,7.72s50.88,18.99,52.62,29.55c-1.11-1.63-5.15-3.25-5.15-3.25-8.08-.82-27.85,11.28-32.48,15.33l-.16-.19c-1.35,1.14-6.48,5.2-12.54,6.37-2.29-.16-5.13-.37-8.15-.59-4.74-1.83-12.65-8.02-19.78-14.12-8.23-7.06-15.4-14.01-15.4-14.01s-5.52-4.54-13.12-9.77c-8.87-6.11-20.59-13.17-29.64-15.03C1007.59,401.31,1027.4,399.95,1032.47,399.76Z" transform="translate(-710.758 -341)"/><path class="cls-14" d="M896.092,695.9c-1.286,0-2.064-.5-2.312-1.487-1.177-4.7,17.357-18.6,17.544-18.74,2.522-7.8,5.277-10.777,7.489-13.166a15.1,15.1,0,0,0,3.977-6.209c3.688-11.507,31.768-85.109,32.051-85.851,9.578-5.113,28.172-9.941,55.267-14.356,2.129,2.04,5.815,3.073,10.961,3.073,13.454,0,32.708-7.091,32.927-7.172-.012-.006-.232-.614-.7-1.707,18.573-2.1,32.351-3.173,32.488-3.183l4.17-.54.97-.121a42.148,42.148,0,0,1,6.03,8.115c.32,13.535.778,23.292,1.36,29a46.625,46.625,0,0,1-4.621,8.546,30.16,30.16,0,0,1-3.157.5,28.277,28.277,0,0,0-7.317,2.18l-3.756,4.478-.169.269a81.324,81.324,0,0,1-18.593,2.564,27.934,27.934,0,0,1-10.92-1.841c-13.3-5.733-77.41-9.2-78.057-9.23,5.222,13.556-29.579,57.712-29.931,58.157-7.329,9.276-1.254,14.465-1.192,14.516-.125,5.034-2.733,7.314-2.76,7.336a108.165,108.165,0,0,0-11.48,7.16c-6.129,5.734-18.339,12.721-18.461,12.791C907.828,691.038,900.094,695.9,896.092,695.9Z" transform="translate(-710.758 -341)"/><path class="cls-14" d="M941.79,649.18c-7.42,9.39-1.19,14.53-1.19,14.53-.13,5.08-2.76,7.32-2.76,7.32a107.342,107.342,0,0,0-11.48,7.16c-6.2,5.8-18.46,12.79-18.46,12.79s-12.92,8.17-14.11,3.43,17.54-18.73,17.54-18.73c4.35-13.45,9.23-12.39,11.47-19.38,3.73-11.64,32.05-85.85,32.05-85.85,11.02-5.88,32.67-10.67,55.26-14.35,9.16,8.8,43.89-4.1,43.89-4.1s-.22-.61-.69-1.72c18.78-2.11,32.48-3.17,32.48-3.17l4.17-.54.97-.12a42.082,42.082,0,0,1,6.02,8.11c.25,10.59.67,22.24,1.36,29a47.2,47.2,0,0,1-4.62,8.54,31.306,31.306,0,0,1-3.15.5,28.067,28.067,0,0,0-7.32,2.18l-3.76,4.48c-.06.09-.11.18-.17.27-9.07,2.18-21.63,4.11-29.5.72-13.45-5.8-78.06-9.23-78.06-9.23C977,604.74,941.79,649.18,941.79,649.18Z" transform="translate(-710.758 -341)"/><path class="cls-10" d="M1079.451,599.254l3.761-4.481a28.234,28.234,0,0,1,7.327-2.183,31.525,31.525,0,0,0,3.149-.5,36.63,36.63,0,0,1-3.271,4.217s-.194.073-.554.193c-.843.291-3.924,1.325-8.1,2.42-.79.21-1.61.41-2.471.62l-.024.006Z" transform="translate(-710.758 -341)"/><path class="cls-10" d="M1081.76,598.91c-.79.21-1.61.41-2.47.62.06-.09.11-.18.17-.27l3.76-4.48a28.067,28.067,0,0,1,7.32-2.18,31.306,31.306,0,0,0,3.15-.5,37.4,37.4,0,0,1-3.28,4.2s-.19.07-.55.19C1088.67,596.9,1085.69,597.88,1081.76,598.91Z" transform="translate(-710.758 -341)"/><path class="cls-12" d="M1053.3,550.284a126.587,126.587,0,0,0-8.88-17.038,32.483,32.483,0,0,1,5.778,7.4c.163-.135,17.912-13.2,27.477-13.2a8.061,8.061,0,0,1,2.187.276c.14.04.29.091.43.141a15.344,15.344,0,0,0,2.345,5.263c3.649,4.7,7.216,12.712,7.251,12.792l.081.653-4.179.551c-.137.011-13.915,1.084-32.48,3.17h-.007Z" transform="translate(-710.758 -341)"/><path class="cls-12" d="M1053.31,550.28a126.74,126.74,0,0,0-8.88-17.04,32.736,32.736,0,0,1,5.76,7.41s20.83-15.43,29.67-12.92c.14.04.29.09.43.14a15.4,15.4,0,0,0,2.34,5.26c3.69,4.75,7.25,12.79,7.25,12.79l.08.65-4.17.54S1072.09,548.17,1053.31,550.28Z" transform="translate(-710.758 -341)"/><path class="cls-10" d="M1076.8,607.8a.328.328,0,0,1-.276-.138c-.434-.576.185-2.749.211-2.842a40.626,40.626,0,0,1,2.551-5.292c.866-.214,1.686-.415,2.476-.625l.432,1.657a25.065,25.065,0,0,1-3.913,6.16C1077.613,607.434,1077.114,607.8,1076.8,607.8Z" transform="translate(-710.758 -341)"/><path class="cls-10" d="M1079.29,599.53c.86-.21,1.68-.41,2.47-.62l.42,1.65a25.384,25.384,0,0,1-3.91,6.15c-3.01,3.25-1.53-1.89-1.53-1.89A40.268,40.268,0,0,1,1079.29,599.53Z" transform="translate(-710.758 -341)"/><path class="cls-10" d="M1015.666,516.388c-.8,0-1.507-3.737-1.536-3.9-.379,1.169-.767,1.76-1.131,1.76-.749,0-1.133-2.446-1.148-2.55.679-11.25-1.2-13.744-2.037-14.294l.6-.894c2.446,1.677,4.869,3.514,7.215,5.458a96.577,96.577,0,0,1-.808,10.869C1016.505,515.2,1016.117,516.388,1015.666,516.388Z" transform="translate(-710.758 -341)"/><path class="cls-10" d="M1017.62,501.98a97.1,97.1,0,0,1-.81,10.86c-1.09,8.16-2.67-.35-2.67-.35-1.49,4.36-2.28-.79-2.28-.79.67-11.09-1.11-13.69-2.04-14.3l.6-.88C1012.94,498.26,1015.34,500.09,1017.62,501.98Z" transform="translate(-710.758 -341)"/><path class="cls-15" d="M1106.554,458.5c-.1-.077-9.921-7.708-12.854-7.708-.128,0-.205-.034-.23-.1-.084-.225.483-.781.973-1.207,4.518-3.952,23.107-15.373,31.66-15.373.288,0,.564.014.828.04.043.017,4.058,1.641,5.157,3.254a2.96,2.96,0,0,1,0,1.118c0,.049-.184.6-6.535,4.157-6.652,3.716-18.866,15.7-18.989,15.819l-.005,0Z" transform="translate(-710.758 -341)"/><path class="cls-15" d="M1132.08,437.41a2.959,2.959,0,0,1,0,1.11c0,.05-.17.59-6.53,4.15-6.73,3.76-18.99,15.82-18.99,15.82s-9.89-7.71-12.86-7.71c-.49,0-.17-.49.75-1.29,4.63-4.05,24.4-16.15,32.48-15.33C1126.93,434.16,1130.97,435.78,1132.08,437.41Z" transform="translate(-710.758 -341)"/><path class="cls-10" d="M1100.235,609.985a1.829,1.829,0,0,1-1.062-.427c.008-.144,1.033-13.525-.195-13.909a.512.512,0,0,0-.152-.021c-1.43,0-5.933,4.751-5.979,4.8l-2.7,7.217c-.021.021-1.86,1.795-2.682,1.795a.352.352,0,0,1-.309-.145c-.189-.272-.095-.931.282-1.958a67.8,67.8,0,0,0,2.991-10.658,2.739,2.739,0,0,0-.448.1l-.131-.285.554-.2a38.1,38.1,0,0,0,3.277-4.2c3.436-.734,4.718-1.785,5.189-2.539a1.416,1.416,0,0,0,.258-1,28.039,28.039,0,0,1-.83-4.991c2.875-7.007,4.971-17.721-1.359-29-.05-2.064-.09-4.074-.121-6-.188-9.569-.23-17.194-.23-17.27-.092-.256-9.245-25.976-10.8-26.37l-.051,0a.7.7,0,0,0-.382.111l-.1-.246c-.044-.205-4.5-20.47-17.922-23.463-2.374-.532-4.8-1.04-7.22-1.51,1.28-.973,2.61-1.927,3.977-2.907,1.082-.777,2.186-1.569,3.31-2.391a262.244,262.244,0,0,0,21.249-17.849c4.847,2.56,9.766,11.037,9.815,11.122l2.8,15.866c.446,2.522.912,5.156,1.359,7.747a1.172,1.172,0,0,1,.04.252c.389,2.563.653,4.657.81,6.4l.212-.493c.958,5.333,1.748,9.862,2.1,11.972,1.172,7.011,2.089,9.346,6.13,15.617,3.916,6.073.437,26.7.4,26.907-.052.354-5.122,35.594-2.711,40.614s-.89,7.508-.923,7.532l-4.486-.138c-.005.048-1.59,5.634-2.43,8.3C1101.418,609.439,1100.905,609.985,1100.235,609.985Z" transform="translate(-710.758 -341)"/><path class="cls-10" d="M1100.86,481.44c.01.06.02.11.03.17.55,3.12,1.15,6.49,1.72,9.79a1.178,1.178,0,0,1,.04.25c.35,2.31.64,4.51.81,6.4l.23-.49c.94,5.33,1.73,9.86,2.08,11.97,1.19,7.12,2.18,9.49,6.13,15.62s.4,26.9.4,26.9-5.15,35.54-2.71,40.62-.92,7.52-.92,7.52l-4.48-.14s-1.59,5.61-2.44,8.31-2.57,1.19-2.57,1.19,1.05-13.52-.2-13.91-6.14,4.78-6.14,4.78l-2.7,7.22s-4.35,4.22-2.69-.3a66.956,66.956,0,0,0,2.99-10.66,1.873,1.873,0,0,0-.46.09l-.12-.28c.36-.12.55-.19.55-.19a37.4,37.4,0,0,0,3.28-4.2c6.02-1.28,5.45-3.55,5.45-3.55a28.542,28.542,0,0,1-.83-4.99c3.16-7.7,4.76-18.1-1.36-29-.05-2.06-.09-4.07-.12-6-.19-9.68-.23-17.27-.23-17.27s-9.23-25.98-10.81-26.38a.613.613,0,0,0-.44.11l-.09-.24s-4.35-20.44-17.93-23.47c-2.59-.58-5.01-1.08-7.22-1.51,2.3-1.71,4.75-3.42,7.29-5.28a260.41,260.41,0,0,0,21.25-17.85c4.89,2.59,9.8,11.12,9.8,11.12S1099.52,473.86,1100.86,481.44Z" transform="translate(-710.758 -341)"/><path class="cls-16" d="M1103.681,497.562c-.33-1.9-.681-3.89-1.04-5.91a.959.959,0,0,0-.033-.213c-.438-2.849-1-6.051-1.728-9.827l-2.44-13.82c-.047-.082-4.963-8.554-9.794-11.113a5.666,5.666,0,0,0-2.456-.749c-.779-.025-2.007-.1-3.56-.2l-.881-.054c6.01-1.18,11.113-5.187,12.534-6.388l.175.192c-.882.779-1.014,1.081-.969,1.2.022.058.092.087.211.087,2.94,0,12.767,7.635,12.865,7.712,3.326,2.553,4.8,10.476,4.815,10.556.732,10.679-6.817,26.731-7.681,28.526l-.013.028Z" transform="translate(-710.758 -341)"/><path class="cls-16" d="M1088.65,456.67a5.673,5.673,0,0,0-2.46-.75c-.92-.03-2.47-.13-4.44-.25,6.06-1.17,11.19-5.23,12.54-6.37l.16.19c-.92.8-1.24,1.29-.75,1.29,2.97,0,12.86,7.71,12.86,7.71,3.36,2.58,4.81,10.55,4.81,10.55.71,10.35-6.28,25.61-7.68,28.52-.33-1.9-.68-3.89-1.04-5.91a1.178,1.178,0,0,0-.04-.25c-.49-3.2-1.11-6.62-1.72-9.79-.01-.06-.02-.11-.03-.17-1.34-7.58-2.41-13.65-2.41-13.65S1093.54,459.26,1088.65,456.67Z" transform="translate(-710.758 -341)"/><path class="cls-10" d="M1103.45,498.051c-.157-1.742-.422-3.835-.809-6.4.379,2.017.729,4.007,1.059,5.907l-.247.529Z" transform="translate(-710.758 -341)"/><path class="cls-10" d="M1103.69,497.56l-.23.49c-.17-1.89-.46-4.09-.81-6.4C1103.01,493.67,1103.36,495.66,1103.69,497.56Z" transform="translate(-710.758 -341)"/><path class="cls-10" d="M1093.683,592.094a46.923,46.923,0,0,0,4.618-8.538,29.389,29.389,0,0,0,.848,4.991,1.427,1.427,0,0,1-.259,1.016c-.473.758-1.758,1.816-5.2,2.546l-.024,0Z" transform="translate(-710.758 -341)"/><path class="cls-10" d="M1099.14,588.55s.57,2.27-5.45,3.55a47.2,47.2,0,0,0,4.62-8.54A28.542,28.542,0,0,0,1099.14,588.55Z" transform="translate(-710.758 -341)"/><path class="cls-10" d="M1098.3,583.561c-.583-5.713-1.04-15.47-1.36-29,6.353,11.277,4.254,22,1.378,29Z" transform="translate(-710.758 -341)"/><path class="cls-10" d="M1096.95,554.56c6.12,10.9,4.52,21.3,1.36,29C1097.62,576.8,1097.2,565.15,1096.95,554.56Z" transform="translate(-710.758 -341)"/><path class="cls-12" d="M1096.941,554.564a42.31,42.31,0,0,0-6.018-8.107l-.962.123-.091-.659c-.035-.077-3.6-8.09-7.248-12.785a15.221,15.221,0,0,1-2.342-5.263c8.578,2.915,16.392,20.5,16.469,20.683.121,1.934.161,3.944.211,6Z" transform="translate(-710.758 -341)"/><path class="cls-12" d="M1096.83,548.56c.03,1.93.07,3.94.12,6a42.082,42.082,0,0,0-6.02-8.11l-.97.12-.08-.65s-3.56-8.04-7.25-12.79a15.4,15.4,0,0,1-2.34-5.26c8.66,2.96,16.45,20.69,16.45,20.69Z" transform="translate(-710.758 -341)"/><path class="cls-10" d="M1081.617,609.971a.36.36,0,0,1-.273-.129c-.488-.531-.322-2.519-.314-2.6-.2-.723.783-4.814,1.391-7.2l-.233.52-.438-1.65c4.185-1.107,7.263-2.142,8.107-2.433l.132.286c-2.355.879-5.339,7.15-5.869,9.986-.585,3.106-1.617,3.167-2.447,3.216Z" transform="translate(-710.758 -341)"/><path class="cls-10" d="M1082.46,599.93c-.04.09-.14.32-.28.63l-.42-1.65c3.93-1.03,6.91-2.01,8.1-2.42l.12.28c-2.31.85-5.32,7.04-5.87,9.98-.59,3.14-1.63,3.16-2.47,3.21s-.6-2.72-.6-2.72C1080.8,606.37,1082.29,600.6,1082.46,599.93Z" transform="translate(-710.758 -341)"/><path class="cls-16" d="M1060.108,479.81c-2.25-.45-4.256-.8-6.09-1.12a126.251,126.251,0,0,1,18.116-15.658c.067-.056,6.781-5.692,7.116-6.914v-.158a18.774,18.774,0,0,0,2.5-.3l.883.054c1.552.1,2.781.171,3.559.2a5.684,5.684,0,0,1,2.465.751,257.189,257.189,0,0,1-21.249,17.867c-1.123.822-2.227,1.615-3.31,2.391-1.367.98-2.7,1.935-3.98,2.889l0,0Z" transform="translate(-710.758 -341)"/><path class="cls-16" d="M1086.19,455.92a5.673,5.673,0,0,1,2.46.75,260.41,260.41,0,0,1-21.25,17.85c-2.54,1.86-4.99,3.57-7.29,5.28-2.25-.45-4.29-.81-6.09-1.12a126.521,126.521,0,0,1,18.12-15.64s6.78-5.68,7.12-6.92v-.16a17.262,17.262,0,0,0,2.49-.29C1083.72,455.79,1085.27,455.89,1086.19,455.92Z" transform="translate(-710.758 -341)"/><path class="cls-12" d="M1078.269,517.32c-.195-.012-19.624-1.205-29.53-2.51a57.287,57.287,0,0,0-6.987-.584,8.012,8.012,0,0,0-2.349.243c-.319-3.235-1.082-4-1.09-4.011-4.548-3.813-9.158-10.112-5.282-18.472,1.657-3.576,5.471-7.494,8.256-10.355a26.328,26.328,0,0,0,3.224-3.626,1.72,1.72,0,0,0,.239-.666h.161c.033,0,3.416.362,9.11,1.33-13.8,14.9-9.28,22.074-9.232,22.144,2.09-10.52,8.438-15.947,15.315-21.022,2.425.469,4.855.977,7.228,1.508,13.432,3,17.894,23.273,17.938,23.478l.089.239c-1.891,1.125-6.443,10.238-6.549,10.715a14.309,14.309,0,0,0,.02,1.567l-.56.021Z" transform="translate(-710.758 -341)"/><path class="cls-12" d="M1085.26,504.78l.09.24c-1.95,1.15-6.47,10.35-6.55,10.71a14.048,14.048,0,0,0,.02,1.57l-.55.01s-19.51-1.19-29.53-2.51c-6.33-.83-8.56-.61-9.34-.34-.31-3.27-1.08-4.01-1.08-4.01-9.76-8.18-6.36-16.13-5.28-18.46,2.57-5.55,10.29-11.87,11.48-13.98a1.76,1.76,0,0,0,.24-.67l.15.01s3.35.35,9.11,1.33c-13.97,15.06-9.24,22.14-9.24,22.14,2.02-10.08,7.85-15.5,15.33-21.02,2.21.43,4.63.93,7.22,1.51C1080.91,484.34,1085.26,504.78,1085.26,504.78Z" transform="translate(-710.758 -341)"/><path class="cls-10" d="M1050.182,540.655a32.98,32.98,0,0,0-5.759-7.407c-.261-.426-.527-.849-.8-1.285l-.131-.208a10.148,10.148,0,0,0-.83-3.37c-1.761-3.254-3.147-9.56-3.161-9.623a35.027,35.027,0,0,0-.109-4.3,7.673,7.673,0,0,1,2.361-.255,57.533,57.533,0,0,1,6.989.584c9.9,1.305,29.334,2.5,29.53,2.51l.549-.01a52.223,52.223,0,0,0,1.48,10.578c-.153-.039-.3-.088-.443-.128a8.015,8.015,0,0,0-2.181-.276c-9.558,0-27.3,13.062-27.48,13.194l-.008.007Z" transform="translate(-710.758 -341)"/><path class="cls-10" d="M1080.29,527.87c-.14-.05-.29-.1-.43-.14-8.84-2.51-29.67,12.92-29.67,12.92a32.736,32.736,0,0,0-5.76-7.41c-.3-.49-.61-.98-.93-1.49a10.185,10.185,0,0,0-.83-3.37c-1.78-3.29-3.16-9.62-3.16-9.62a34.393,34.393,0,0,0-.11-4.3c.78-.27,3.01-.49,9.34.34,10.02,1.32,29.53,2.51,29.53,2.51l.55-.01A50.92,50.92,0,0,0,1080.29,527.87Z" transform="translate(-710.758 -341)"/><path class="cls-13" d="M1078.55,455.986a13.831,13.831,0,0,1-4.633-.777c-.1-.04-.211-.08-.32-.12l2.334.151c2.14.156,4.13.3,5.82.42a15.062,15.062,0,0,1-2.491.31C1079.024,455.98,1078.787,455.986,1078.55,455.986Z" transform="translate(-710.758 -341)"/><path class="cls-13" d="M1081.75,455.67a17.262,17.262,0,0,1-2.49.29,13.979,13.979,0,0,1-5.34-.76c-.1-.04-.21-.08-.32-.12C1076.62,455.3,1079.46,455.51,1081.75,455.67Z" transform="translate(-710.758 -341)"/><path class="cls-10" d="M1022.663,506.417c-.952-.888-1.888-1.729-2.78-2.5l.027-.619c-.2-4.75-1.208-5.459-1.793-5.459a.872.872,0,0,0-.511.178c0,.006.074,1.53.024,3.962-2.361-1.936-4.783-3.773-7.216-5.452-2.057-1.425-4.17-2.775-6.279-4.009-.173-3.37-.244-5.914-.244-5.938a39.234,39.234,0,0,1-6.108,2.509c-1.963-.968-4.028-1.9-6.147-2.761a4.687,4.687,0,0,0-1.9-.314c-1.446,0-3.882.415-7.278,2.394a13.176,13.176,0,0,1-5.063-4.784c4.322-9.6,9.613-11.614,13.29-11.614a9.4,9.4,0,0,1,4.123.91s6.346-2.562,14.341-5.75c9.61-3.836,26.381-10.476,30.751-11.851a40.191,40.191,0,0,1,11.526-1.985c.227,0,.347,0,.347,0s1,.08,2.661.22c4.06.33,12.09.98,19.17,1.51.113.041.223.081.323.121a13.818,13.818,0,0,0,4.626.775c.237,0,.473,0,.71-.016l.01.17c-.337,1.231-7.056,6.871-7.124,6.928a127.639,127.639,0,0,0-18.119,15.639c-5.7-.966-9.085-1.323-9.118-1.327l-.15-.01a.782.782,0,0,0-.177-.615,2.3,2.3,0,0,0-1.617-.456,5.417,5.417,0,0,0-.594.031c-.072.013-7.385,1.315-14.858,3.49-3.3-4.353-17.085-5.172-21.233-5.32a33.176,33.176,0,0,1,4.28,1.324c.624.221,1.181.418,1.583.546.586.19,2.464,2.526,5.585,6.944,3.627,5.131,7.7,11.329,7.741,11.391.056.169,1.363,4.124.876,4.927a.277.277,0,0,1-.193.138h0c-.784,0-3.139-2.6-4.516-4.2,1.008,2.065,1.165,6.913,1.166,6.962,0,1.586-.039,2.862-.12,3.9v.021Zm-1.6-11.566c.1.116.257.308.47.553a1.644,1.644,0,0,0-.572-.645Zm-15.44-20.406c.137,0,.341,0,.6.015-.207-.019-.387-.039-.533-.039a.819.819,0,0,0-.251.031A1.416,1.416,0,0,1,1005.627,474.445Z" transform="translate(-710.758 -341)"/><path class="cls-10" d="M1006.23,474.47a1.708,1.708,0,0,0-.81-.02S1005.71,474.45,1006.23,474.47Zm14.74,20.28c.06.07.28.34.62.73,1.05,2.04,1.2,7.03,1.2,7.03,0,1.59-.04,2.87-.12,3.9-.9-.84-1.83-1.68-2.78-2.5.02-.38.03-.61.03-.61-.29-6.98-2.32-5.29-2.32-5.29s.07,1.51.02,3.97c-2.28-1.89-4.68-3.72-7.2-5.46q-3.03-2.1-6.28-4.01c-.17-3.4-.24-5.93-.24-5.93a40.367,40.367,0,0,1-6.12,2.5q-2.97-1.47-6.14-2.76s-3.03-1.51-9.19,2.08a13.075,13.075,0,0,1-5.05-4.78c7.31-16.22,17.4-10.69,17.4-10.69s6.35-2.56,14.35-5.75c11.6-4.63,26.65-10.56,30.75-11.85a38.432,38.432,0,0,1,11.87-1.98s1,.08,2.66.22c4.06.33,12.09.98,19.17,1.51.11.04.22.08.32.12a13.979,13.979,0,0,0,5.34.76v.16c-.34,1.24-7.12,6.92-7.12,6.92a126.521,126.521,0,0,0-18.12,15.64c-5.76-.98-9.11-1.33-9.11-1.33l-.15-.01c.17-1.35-2.39-1.04-2.39-1.04s-7.3,1.29-14.86,3.49c-3.34-4.42-17.58-5.19-21.23-5.32,1.55.3,4.54,1.47,5.86,1.89.68.22,3.03,3.33,5.58,6.94,3.67,5.19,7.74,11.39,7.74,11.39s1.63,4.9.69,5.05c-.71.11-3.34-2.84-4.56-4.26A1.772,1.772,0,0,0,1020.97,494.75Z" transform="translate(-710.758 -341)"/><path class="cls-13" d="M1079.457,407.87c-.28-.078-28.207-7.76-44.95-7.76q-1.043,0-2.027.04l-.02-.39.172-.015.148,0c-.025-.107-1.522-11.973,4.341-21.555,1.444-2.359,4.65-3.605,9.273-3.605,12.079,0,30.1,8.279,31.1,14.289,1.374,8.215,1.974,18.883,1.98,18.99v.014Z" transform="translate(-710.758 -341)"/><path class="cls-13" d="M1077.48,388.87c1.39,8.31,1.98,18.99,1.98,18.99s-30.36-8.41-46.98-7.72l-.01-.38c.11,0,.21-.01.31-.01,0,0-1.58-11.87,4.35-21.56S1076.1,380.56,1077.48,388.87Z" transform="translate(-710.758 -341)"/><path class="cls-16" d="M1009.03,466.9c1.274-13.489,19.985-29.115,20.173-29.272l-.062-.138a3.776,3.776,0,0,0,1.451-1.16c3.228-4.394-5.542-18.537-5.631-18.679l.331-.481c7.527,5.168,13.079,9.723,13.135,9.768-1.143,7.8,5.636,14.294,7.74,16.1a1.454,1.454,0,0,0,.962.361,1.517,1.517,0,0,0,.786-.222,11.537,11.537,0,0,1,4.517-1.7.922.922,0,0,1,.726.243.742.742,0,0,1,.1.648c-.485,2.45,1.174,10.99,1.19,11.076l-.011.123-2.67-.211s-.12,0-.346,0a40.153,40.153,0,0,0-11.52,1.985c-4.369,1.374-21.14,8.014-30.749,11.849l-.009,0Z" transform="translate(-710.758 -341)"/><path class="cls-16" d="M1029.21,437.64l-.06-.15a3.661,3.661,0,0,0,1.45-1.15c3.27-4.45-5.63-18.69-5.63-18.69l.33-.47c7.6,5.23,13.12,9.77,13.12,9.77-1.13,7.68,5.34,14.04,7.74,16.1a1.489,1.489,0,0,0,1.76.14c1.53-.94,4.56-2.24,5.23-1.46a.721.721,0,0,1,.1.64c-.49,2.48,1.19,11.08,1.19,11.08l-.01.12c-1.66-.14-2.66-.22-2.66-.22a38.432,38.432,0,0,0-11.87,1.98c-4.1,1.29-19.15,7.22-30.75,11.85l-.11-.28C1010.31,453.46,1028.63,438.12,1029.21,437.64Z" transform="translate(-710.758 -341)"/><path class="cls-16" d="M1044.771,500.825c-.046-.071-4.574-7.258,9.241-22.152,1.842.313,3.849.667,6.1,1.117-6.87,5.09-13.215,10.515-15.322,21.032l0,.023Z" transform="translate(-710.758 -341)"/><path class="cls-16" d="M1054.02,478.68c1.8.31,3.84.67,6.09,1.12-7.48,5.52-13.31,10.94-15.33,21.02C1044.78,500.82,1040.05,493.74,1054.02,478.68Z" transform="translate(-710.758 -341)"/><path class="cls-10" d="M1047.129,443.423a1.479,1.479,0,0,1-.976-.366c-2.106-1.807-8.89-8.31-7.743-16.108.089.064,7.28,7.024,15.417,14l-.669.784a.968.968,0,0,0-.726-.235,11.51,11.51,0,0,0-4.507,1.7A1.531,1.531,0,0,1,1047.129,443.423Z" transform="translate(-710.758 -341)"/><path class="cls-10" d="M1053.82,440.96l-.67.77c-.67-.78-3.7.52-5.23,1.46a1.489,1.489,0,0,1-1.76-.14c-2.4-2.06-8.87-8.42-7.74-16.1C1038.42,426.95,1045.59,433.9,1053.82,440.96Z" transform="translate(-710.758 -341)"/><path class="cls-14" d="M1021.069,559.183c-5.152,0-8.841-1.036-10.965-3.077,9.584-1.579,20.444-3.109,32.285-4.566,3.78-.46,7.44-.88,10.92-1.269.481,1.115.7,1.726.7,1.726C1053.811,552.081,1034.536,559.183,1021.069,559.183Z" transform="translate(-710.758 -341)"/><path class="cls-14" d="M1042.39,551.55c3.78-.46,7.44-.88,10.92-1.27.47,1.11.69,1.72.69,1.72s-34.73,12.9-43.89,4.1C1021.02,554.32,1032.15,552.81,1042.39,551.55Z" transform="translate(-710.758 -341)"/><path class="cls-16" d="M1043.491,531.755a129.223,129.223,0,0,0-20.828-25.338c.078-1.047.117-2.323.117-3.907,0-.05-.162-5.011-1.2-7.026,1.116,1.27,3.759,4.249,4.528,4.249a.265.265,0,0,0,.218-.131c.483-.8-.863-4.868-.877-4.909-.039-.06-4.11-6.256-7.738-11.387a71.2,71.2,0,0,1,9.8-3.526c7.474-2.175,14.788-3.477,14.861-3.49a5.512,5.512,0,0,1,.6-.031,2.315,2.315,0,0,1,1.633.463.753.753,0,0,1,.172.619,1.752,1.752,0,0,1-.242.674,26.478,26.478,0,0,1-3.226,3.631c-2.784,2.859-6.6,6.775-8.253,10.349-3.87,8.348.734,14.639,5.278,18.447.008.008.776.781,1.083,4.017a35.025,35.025,0,0,1,.11,4.3c.013.061,1.4,6.364,3.159,9.615a10,10,0,0,1,.831,3.374Z" transform="translate(-710.758 -341)"/><path class="cls-16" d="M1027.51,479.79c7.56-2.2,14.86-3.49,14.86-3.49s2.56-.31,2.39,1.04a1.76,1.76,0,0,1-.24.67c-1.19,2.11-8.91,8.43-11.48,13.98-1.08,2.33-4.48,10.28,5.28,18.46,0,0,.77.74,1.08,4.01a34.393,34.393,0,0,1,.11,4.3s1.38,6.33,3.16,9.62a10.185,10.185,0,0,1,.83,3.37,129.98,129.98,0,0,0-20.83-25.34c.08-1.03.12-2.31.12-3.9,0,0-.15-4.99-1.2-7.03,1.22,1.42,3.85,4.37,4.56,4.26.94-.15-.69-5.05-.69-5.05s-4.07-6.2-7.74-11.39A73.689,73.689,0,0,1,1027.51,479.79Z" transform="translate(-710.758 -341)"/><path class="cls-15" d="M1025.95,438.083c-5.324,0-12.57-3.2-14.145-4.1a3.327,3.327,0,0,0-1.675-.379c-2.84,0-6.875,2.236-6.915,2.259a38.569,38.569,0,0,1-16.824-33.05l9.268-.669c9.217,1.894,21.209,9.22,29.647,15.032l-.328.484c.089.131,8.867,14.285,5.629,18.69a3.676,3.676,0,0,1-1.453,1.154A7.678,7.678,0,0,1,1025.95,438.083Z" transform="translate(-710.758 -341)"/><path class="cls-15" d="M1024.97,417.65s8.9,14.24,5.63,18.69a3.661,3.661,0,0,1-1.45,1.15c-4.61,2.14-15.06-2.21-17.34-3.52-2.57-1.49-8.6,1.88-8.6,1.88a38.279,38.279,0,0,1-16.81-33.04s3.81-.27,9.26-.66c9.05,1.86,20.77,8.92,29.64,15.03Z" transform="translate(-710.758 -341)"/><path class="cls-10" d="M1020.339,510.634a.167.167,0,0,1-.12-.058c-.519-.538-.41-4.841-.339-6.666.909.763,1.845,1.6,2.8,2.493-.269,3.715-.971,4.226-1.689,4.226-.077,0-.152,0-.225-.01s-.135-.009-.2-.009a.811.811,0,0,0-.191.02Z" transform="translate(-710.758 -341)"/><path class="cls-10" d="M1022.67,506.41c-.38,5.18-1.6,4.04-2.3,4.21s-.55-4.92-.48-6.71C1020.84,504.73,1021.77,505.57,1022.67,506.41Z" transform="translate(-710.758 -341)"/><path class="cls-17" d="M1017.712,483.306c-3.118-4.415-4.994-6.748-5.575-6.937-.4-.128-.959-.325-1.584-.547a37.206,37.206,0,0,0-4.275-1.342c4.153.128,17.949.948,21.24,5.3a74.908,74.908,0,0,0-9.794,3.525l-.007,0Z" transform="translate(-710.758 -341)"/><path class="cls-17" d="M1027.51,479.79a73.689,73.689,0,0,0-9.79,3.51c-2.55-3.61-4.9-6.72-5.58-6.94-1.32-.42-4.31-1.59-5.86-1.89C1009.93,474.6,1024.17,475.37,1027.51,479.79Z" transform="translate(-710.758 -341)"/><path class="cls-10" d="M1007.068,510.13c-1.659-.25-2.513-9.719-2.938-17.62,2.125,1.226,4.238,2.575,6.3,4l-.6.894a1.023,1.023,0,0,0-.521-.187c0,.1.256,10.8-1.543,12.644a.808.808,0,0,1-.581.276h0A.749.749,0,0,1,1007.068,510.13Z" transform="translate(-710.758 -341)"/><path class="cls-10" d="M1010.42,496.52l-.6.88a.9.9,0,0,0-.53-.19s.35,13.31-2.22,12.91c-1.73-.26-2.56-10.73-2.93-17.61Q1007.4,494.415,1010.42,496.52Z" transform="translate(-710.758 -341)"/><path class="cls-10" d="M990.3,490.33a16,16,0,0,1-7.857-1.921c3.4-2,5.839-2.414,7.288-2.414a4.708,4.708,0,0,1,1.912.316c2.118.863,4.184,1.792,6.14,2.76A24.761,24.761,0,0,1,990.3,490.33Z" transform="translate(-710.758 -341)"/><path class="cls-10" d="M991.64,486.32q3.165,1.29,6.14,2.76c-7.15,2.23-12.1,1.11-15.33-.68C988.61,484.81,991.64,486.32,991.64,486.32Z" transform="translate(-710.758 -341)"/><rect class="cls-11" x="154.686" y="236.193" width="23.977" height="23.455" rx="11.728"/><circle class="cls-18" cx="171.663" cy="247.958" r="11.914"/><circle class="cls-11" cx="171.775" cy="248.032" r="7.818"/><circle class="cls-4" cx="171.775" cy="248.032" r="5.138"/><rect class="cls-4" x="856.135" y="587.926" width="14.313" height="12.009" rx="6.004" transform="translate(-861.929 -9.543) rotate(-20.021)"/><rect class="cls-11" x="144.745" y="247.734" width="11.765" height="11.765" rx="5.882"/><circle class="cls-19" cx="149.743" cy="253.738" r="3.974"/><ellipse class="cls-5" cx="832.591" cy="475.823" rx="16.552" ry="7.461" transform="translate(-715.867 -331.947) rotate(-0.621)"/><ellipse class="cls-18" cx="832.822" cy="472.208" rx="16.552" ry="7.461" transform="matrix(1, -0.011, 0.011, 1, -715.828, -331.945)"/><path class="cls-19" d="M837.815,466.857v.085l-.03,2.713a3.983,3.983,0,0,1-4.244,3.621h0a3.958,3.958,0,0,1-4.163-3.69l.031-2.8.014-1.285,8.473.07" transform="translate(-710.758 -341)"/><ellipse class="cls-20" cx="833.676" cy="465.352" rx="1.714" ry="4.237" transform="translate(-348.906 954.382) rotate(-89.554)"/><ellipse class="cls-20" cx="837.517" cy="469.768" rx="2.793" ry="3.133" transform="translate(-346.032 964.583) rotate(-89.793)"/><ellipse class="cls-19" cx="838.451" cy="470.044" rx="2.793" ry="3.133" transform="translate(-345.378 965.792) rotate(-89.793)"/><path class="cls-19" d="M807.418,525.615s27.164,11.209,48.659-.791l.132,15.3s-24.923,12.395-48.66-.528Z" transform="translate(-710.758 -341)"/><path class="cls-21" d="M860.3,594.978S812.033,524.692,838.736,470.3" transform="translate(-710.758 -341)"/><path class="cls-19" d="M1003.765,545.337l-10.212-10.4a11.96,11.96,0,0,1,.158-16.862h0a11.809,11.809,0,0,1,3.53-2.391,11.967,11.967,0,0,1,13.332,2.549l10.212,10.4a11.96,11.96,0,0,1-.158,16.862h0A11.959,11.959,0,0,1,1003.765,545.337Z" transform="translate(-710.758 -341)"/><rect class="cls-22" x="990.061" y="523.792" width="38.288" height="22.415" rx="10.132" transform="translate(-26.628 -901.01) rotate(45.537)"/><path class="cls-23" d="M1020.226,531.07l-2.726-2.777-8.28,20a10.523,10.523,0,0,0,10.867-2.389h0A10.523,10.523,0,0,0,1020.226,531.07Z" transform="translate(-710.758 -341)"/><path class="cls-23" d="M997.126,522.511h0a10.523,10.523,0,0,0-.139,14.837l5.056,5.152,8.666-20.937A10.53,10.53,0,0,0,997.126,522.511Z" transform="translate(-710.758 -341)"/><path class="cls-24" d="M1011.962,522.65a10.4,10.4,0,0,0-1.253-1.087l-8.666,20.937,3.207,3.268a10.406,10.406,0,0,0,3.97,2.527l8.28-20Z" transform="translate(-710.758 -341)"/><path class="cls-18" d="M1007.369,550.713,994.5,537.6a11.066,11.066,0,0,1,.147-15.631l2.045-2.007a11.065,11.065,0,0,1,15.63.146l12.868,13.111a11.067,11.067,0,0,1-.146,15.631L1023,550.86A11.066,11.066,0,0,1,1007.369,550.713Zm3.13-28.811a8.506,8.506,0,0,0-12.016-.113l-2.045,2.007a8.506,8.506,0,0,0-.112,12.016l12.867,13.111a8.506,8.506,0,0,0,12.016.112l2.045-2.006a8.506,8.506,0,0,0,.113-12.016Z" transform="translate(-710.758 -341)"/><path class="cls-19" d="M1004.479,502.891s-8.1,1.695-7.494,13.128l-4.048,3.063s-2.954-14.058,11.234-19.123" transform="translate(-710.758 -341)"/><path class="cls-19" d="M1025.191,533.222s2.115-18.826-4.61-25.4a12.047,12.047,0,0,0-3.032-2.05l.066-3.264,3.128,1.735a16.147,16.147,0,0,1,3.136,2.935c2.537,3.194,6,11.442,3.683,29.5" transform="translate(-710.758 -341)"/><path class="cls-10" d="M1022.626,505.308s.264,4.207-1.046,5.11c-1.544,1.063-1.706-2.522-1.706-2.522l-.017-5.028Z" transform="translate(-710.758 -341)"/><path class="cls-19" d="M1009.209,503.28s.122-2.59.072-2.837,2.153.3,2.153.3S1010.56,503.379,1009.209,503.28Z" transform="translate(-710.758 -341)"/><path class="cls-19" d="M1009.176,503.33l2.72.906a25.464,25.464,0,0,0-.445-3.478" transform="translate(-710.758 -341)"/></svg>