<svg id="Layer_1" data-name="Layer 1" xmlns="http://www.w3.org/2000/svg" viewBox="0 0 150 92.77"><defs><style>.cls-1{fill:#fff;}.cls-2{fill:#ff5e4d;}</style></defs><title>logo-white</title><path d="M109.8,31.62a39.19,39.19,0,0,0-14.22,2.67q-3-.65-6.14-1.15c-25-4-48.33-.28-64,8.75C4.79,50.89-5.31,74.4,2.84,95.2c8.35,21.31,32.68,31.7,54.34,23.22a42.35,42.35,0,0,0,21.69-19,39.68,39.68,0,0,0,30.93,15C132,114.41,150,95.88,150,73S132,31.62,109.8,31.62Z" transform="translate(-0.02 -28.61)"/><path class="cls-1" d="M111.75,28.61a36.53,36.53,0,0,0-14.12,2.82L97,31.37C60.36,28.22,27.85,41.75,17.11,63.06a32.74,32.74,0,0,0-4.18,16.71c0,17.66,13.9,32,31.06,32a30.58,30.58,0,0,0,22.92-10.4,41,41,0,0,0,9.27-13A55,55,0,0,0,92,100.67a36.83,36.83,0,0,0,19.77,5.75c20.87,0,37.79-17.42,37.79-38.91S132.62,28.61,111.75,28.61Z" transform="translate(-0.02 -28.61)"/><path class="cls-2" d="M120,34.93v-.09l-1.82-.38-1-.2c-6.94-1.38-14.29-2.47-21.88-2-36,2.36-63.25,13.57-72.9,31.69a26.08,26.08,0,0,0-3.59,11.49c0,.31-.08.61-.11.92h.07c0,.32-.05.64-.05,1,0,14.18,11.17,25.68,25,25.68a24.35,24.35,0,0,0,14.77-5c5.54-3.19,11.09-9.49,14.93-17.7.26-.56.5-1.11.73-1.66a63.91,63.91,0,0,0,20,15.56,31.12,31.12,0,0,0,17.21,5.19c17.62,0,31.91-14.71,31.91-32.85A32.74,32.74,0,0,0,120,34.93ZM68,70.7l-.15.22c-.06-.23-.11-.47-.18-.71Z" transform="translate(-0.02 -28.61)"/><polygon class="cls-1" points="116.76 46.47 116.77 50.72 127.17 50.72 127.17 42.41 122.92 42.39 122.92 46.47 116.76 46.47"/><polygon class="cls-1" points="100.35 46.46 94.16 46.46 94.16 42.24 89.91 42.22 89.92 50.71 100.36 50.71 100.35 46.46"/><polygon class="cls-1" points="127.16 21.8 116.72 21.8 116.72 26.05 122.91 26.05 122.91 30.27 127.16 30.3 127.16 21.8"/><polygon class="cls-1" points="100.31 26.04 100.31 21.8 89.9 21.79 89.91 30.11 94.16 30.13 94.16 26.04 100.31 26.04"/></svg>