<svg id="Layer_1" data-name="Layer 1" xmlns="http://www.w3.org/2000/svg" viewBox="0 0 150 89.81"><defs><style>.cls-1{opacity:0.2;}</style></defs><title>logo-grey</title><path class="cls-1" d="M149.52,66.47c0,.35,0,.69,0,1,0,21.49-16.92,38.91-37.79,38.91A36.83,36.83,0,0,1,92,100.67a55,55,0,0,1-15.8-12.35,41,41,0,0,1-9.27,13A30.58,30.58,0,0,1,44,111.75c-17.16,0-31.06-14.32-31.06-32a32.74,32.74,0,0,1,4.18-16.71c8.37-16.61,30-28.49,56.46-31.43C54.74,31,37.73,34.81,25.44,41.89,4.79,50.89-5.31,74.4,2.84,95.2c8.35,21.31,32.68,31.7,54.34,23.22a42.35,42.35,0,0,0,21.69-19,39.68,39.68,0,0,0,30.93,15C132,114.41,150,95.88,150,73A44.19,44.19,0,0,0,149.52,66.47Z" transform="translate(-0.02 -31.56)"/><path class="cls-1" d="M120,34.93v-.09l-1.82-.38-1-.2c-6.94-1.38-14.29-2.47-21.88-2-36,2.36-63.25,13.57-72.9,31.69a26.08,26.08,0,0,0-3.59,11.49c0,.31-.08.61-.11.92h.07c0,.32-.05.64-.05,1,0,14.18,11.17,25.68,25,25.68a24.35,24.35,0,0,0,14.77-5c5.54-3.19,11.09-9.49,14.93-17.7.26-.56.5-1.11.73-1.66a63.91,63.91,0,0,0,20,15.56,31.12,31.12,0,0,0,17.21,5.19c17.62,0,31.91-14.71,31.91-32.85A32.74,32.74,0,0,0,120,34.93Zm-52.18,36c-.06-.23-.11-.47-.18-.71l.33.49ZM89.92,50.4h10.41v4.25H94.18v4.08l-4.25,0Zm0,28.92V70.83l4.25,0v4.22h6.19v4.25Zm26.8-28.91h10.44V58.9l-4.25,0V54.66h-6.19Zm.05,28.92V75.08h6.16V71l4.25,0v8.31Z" transform="translate(-0.02 -31.56)"/></svg>