<svg id="Layer_1" data-name="Layer 1" xmlns="http://www.w3.org/2000/svg" viewBox="0 0 565 358.346"><defs><style>.cls-1{fill:#077aff;}.cls-2{fill:#d8c1ad;}.cls-3{fill:#312b31;}.cls-4{fill:#6d1641;}.cls-5{fill:#ab3b5a;}.cls-6{fill:#e4954f;}.cls-7{fill:#f0e796;}.cls-8{fill:#fbffb5;opacity:0.3;}.cls-9{fill:none;stroke:#000;stroke-linecap:round;stroke-miterlimit:10;stroke-width:16px;}.arrow-red{fill:#de2500;}.cls-11{fill:#e37c44;}.cls-12{fill:#f7f8e6;}.cls-13{fill:#1e1d30;}.cls-14{fill:#fff;}</style></defs><title>chest</title><path class="cls-1" d="M138.225,0H425.753A137.907,137.907,0,0,1,563.659,137.907V247.885a83.632,83.632,0,0,1-83.632,83.632H72.951A72.632,72.632,0,0,1,.319,258.885V137.907A137.907,137.907,0,0,1,138.225,0Z"/><rect class="cls-2" y="194.242" width="562.549" height="153.099" rx="76.549"/><rect class="cls-3" x="197.407" y="175.253" width="237.165" height="6.725"/><path class="cls-4" d="M1424.824,314.79l-257.934,1.946,11.341-65.934c0-6.809-3.915-15.824,2.742-15.824h236.888a7.094,7.094,0,0,1,6.963,7.22Z" transform="translate(-933.484 -150.319)"/><rect class="cls-5" x="1356.649" y="271.707" width="83.516" height="9.791" transform="translate(1041.88 -1177.239) rotate(102.686)"/><rect class="cls-5" x="1371.157" y="275.767" width="83.516" height="9.791" transform="translate(1063.535 -1186.442) rotate(102.686)"/><path class="cls-4" d="M152.231,194.242H403.907a22.676,22.676,0,0,1,22.676,22.676V291.4a0,0,0,0,1,0,0h-296.7a0,0,0,0,1,0,0v-74.8A22.352,22.352,0,0,1,152.231,194.242Z"/><rect class="cls-5" x="145.44" y="212.626" width="270.615" height="14.242"/><rect class="cls-5" x="143.747" y="232.352" width="280.22" height="14.242"/><rect class="cls-5" x="143.22" y="251.341" width="271.648" height="14.242"/><rect class="cls-5" x="139.791" y="271.011" width="285.758" height="14.242"/><path class="cls-6" d="M1424.82,269.294c-2.89-22.484-24.863-27.661-24.863-27.661L1385.11,307.3l-1.511,6.662c36.543,6.276,40.871-31.854,40.871-31.854A44.575,44.575,0,0,0,1424.82,269.294Zm-37.044,63.125-23.655-3.9.006-.029,23.316-110.814,19.584,8.847s39.714,10.88,32.987,60.1l-.233,1.208S1432.774,336.118,1387.776,332.419Z" transform="translate(-933.484 -150.319)"/><path class="cls-7" d="M1424.47,282.1s-4.328,38.13-40.871,31.854l1.511-6.662c2.682.468,37.719,5.827,39.71-38A44.575,44.575,0,0,1,1424.47,282.1Z" transform="translate(-933.484 -150.319)"/><path class="cls-7" d="M1366.807,235.769l-176.185.792L1171.106,314.1l178.949.663Zm-2.9,92.67-211.516-1.676L1180.6,219.414l206.784-1.835.055.093-23.316,110.814Z" transform="translate(-933.484 -150.319)"/><path class="cls-8" d="M1338.615,305.835h-2.222a12.6,12.6,0,0,1-2.852-24.443,14.13,14.13,0,0,0,4.341-.775l.041,0h-.035a12.769,12.769,0,0,0,8.87-11.868c0-6.962-6.081-12.659-13.515-12.659h-5.781a12.587,12.587,0,0,1,.437-24.988c.171-.016.338-.048.507-.07.42-.04.845-.063,1.275-.063h-.827c6.511-1.03,11.509-6.232,11.509-12.462h0c0-6.962-6.238-12.659-13.862-12.659h-15.945c-5.566-.5-10.038-5.421-10.5-11.557.031-.348.057-.7.057-1.053h0c0-.355-.026-.7-.057-1.053-.569-6.473-6.312-11.606-13.266-11.606H1099.248c-6.313,0-11.479,5.7-11.479,12.659,0,6.635,4.694,12.109,10.6,12.61h-.577c7.624,0,13.861,5.7,13.861,12.659h0c0,6.23-5,11.432-11.508,12.462h-12.222a12.627,12.627,0,0,0-2.22,25.121h-.087c6.571.848,11.679,6.149,11.679,12.527a12.808,12.808,0,0,1-9.253,12h-19.056a12.661,12.661,0,1,0,0,25.319h2.785a12.655,12.655,0,0,1-1.506,25.22h268.351a12.66,12.66,0,1,0,0-25.319Z" transform="translate(-933.484 -150.319)"/><path class="cls-9" d="M1169.264,248.824" transform="translate(-933.484 -150.319)"/><path class="cls-9" d="M1197.055,274.835" transform="translate(-933.484 -150.319)"/><path  id="arrow" class="arrow" d="M1248.163,247.746a11.173,11.173,0,0,0-15.585-1.763l-14.318,11.262-.493-49.987.107-10.745a11.122,11.122,0,0,0-15.7-10.1l-.1.046c-.211.093-.414.2-.618.3a10.957,10.957,0,0,0-5.98,9.839l.106,10.655-.492,49.9-14.318-11.261a11.172,11.172,0,0,0-15.585,1.763,10.9,10.9,0,0,0,1.782,15.423L1196.36,286.2l10.372,8.158,10.255-8.066,29.394-23.12A10.9,10.9,0,0,0,1248.163,247.746Z" transform="translate(-933.484 -150.319)"/><path id="arrow" class="arrow-red" d="M1246.586,248.531A11.093,11.093,0,0,0,1231,246.75l-14.318,11.38-.493-50.514.106-10.858a11.092,11.092,0,0,0-10.984-11.2,10.965,10.965,0,0,0-4.718,1l-.1.047c-.211.093-.414.2-.618.305a11.082,11.082,0,0,0-5.98,9.942l.106,10.768-.492,50.422-14.318-11.38a11.092,11.092,0,1,0-13.8,17.367l29.392,23.362,10.372,8.244,10.255-8.151,29.394-23.364A11.093,11.093,0,0,0,1246.586,248.531Z" transform="translate(-933.484 -150.319)"/><path class="cls-6" d="M1255.683,454.076l-.535-122.309,99.393-.466V439.36l-88.453,1.269a3.771,3.771,0,0,0,.059,7.541l95.936-1.367-.01-115.535,7.226-.037-.262,123.108Zm20.861-20.735,63.654-.177,7.772-.019-.58-82.5-7.782-.036-63.064-.346Z" transform="translate(-933.484 -150.319)"/><path class="cls-6" d="M1368.576,331.957l-.26,121.658-111.914-.259-.529-120.87,97.946-.459V438.649l-87.742,1.258a4.493,4.493,0,0,0,.07,8.986h.06l96.6-1.378-.01-115.528ZM1348.7,433.866l-.589-83.938-8.5-.04-63.789-.349v84.527l64.378-.18Z" transform="translate(-933.484 -150.319)"/><path class="cls-11" d="M1266.147,449.615a5.232,5.232,0,0,1-5.215-5.147,5.212,5.212,0,0,1,5.134-5.283l87.031-1.248V331.307l10.42-.046.01,116.966-97.315,1.388Z" transform="translate(-933.484 -150.319)"/><path class="cls-11" d="M1362.8,331.987l.01,115.528-96.6,1.378h-.06a4.493,4.493,0,0,1-.07-8.986l87.742-1.258V332.027Z" transform="translate(-933.484 -150.319)"/><polygon class="cls-11" points="419.613 180.857 430.034 180.857 430.034 182.417 419.613 182.433 419.613 180.857"/><polygon class="cls-11" points="428.934 181.319 429.311 181.668 420.336 181.708 420.527 181.055 428.934 181.319"/><polygon class="cls-7" points="121.998 180.916 123.033 180.916 198.104 181.319 197.953 200.532 148.796 200.532 148.796 282.892 148.676 282.892 148.676 284.804 210.023 284.931 210.023 283.547 209.618 232.464 236.091 232.464 235.962 284.674 297.176 284.801 297.176 282.629 297.048 199.75 257.482 200.143 256.771 200.143 256.469 181.051 323.109 181.449 323.644 303.759 122.604 303.819 121.998 180.916"/><polygon class="cls-7" points="235.247 282.609 235.237 285.395 297.898 285.524 297.898 282.629 297.768 199.021 257.612 199.42 257.482 199.42 257.202 181.778 322.39 182.167 322.919 303.037 123.323 303.097 122.724 181.638 123.033 181.638 197.376 182.037 197.237 199.809 196.787 199.809 155.442 199.809 148.074 199.809 148.074 282.17 147.954 282.17 147.954 285.524 210.745 285.654 210.745 283.548 210.346 233.187 235.367 233.187 235.247 282.609"/><polygon class="cls-12" points="234.512 286.116 234.528 281.884 242.44 281.914 243.005 281.907 298.621 281.907 298.621 286.248 234.512 286.116"/><polygon class="cls-12" points="243.005 282.639 243.005 282.629 297.509 282.629 297.898 282.629 297.898 285.524 235.237 285.395 235.247 282.609 243.005 282.639"/><polygon class="cls-6" points="248.403 233.187 247.604 169.464 257.734 169.464 257.885 179.001 257.925 181.767 258.744 233.895 248.403 234.082 248.403 233.187"/><polygon class="cls-6" points="257.202 181.778 257.482 199.42 258.011 233.187 249.125 233.347 249.125 233.187 248.336 170.186 257.023 170.186 257.162 179.012 257.202 181.778"/><path class="cls-7" d="M1129.742,384.228l.256-34.105.139-17.773-.075-9.5,50.982.03.053-2.388,1.445.007.8,63.732Zm26.874-41.934c-6.32.134-9.446,3.263-9.558,9.564-.082,4.229,3.721,6.8,3.76,6.823l.32.212.133,15.391v1.452l10.621-.124.046-1.346-.071-15.149.285-.219a8.476,8.476,0,0,0,3.546-7.485l-.006-.072c0-.055-.239-5.515-4.241-7.9a8.715,8.715,0,0,0-4.551-1.149Z" transform="translate(-933.484 -150.319)"/><path class="cls-7" d="M1168.85,383.506h-38.38l.25-33.378.14-17.772-.07-8.786,50.96.03.07-3.1.788,63H1168.85Zm-7.029-40.686a9.469,9.469,0,0,0-5.222-1.248c-9.375.2-10.2,6.909-10.263,10.273-.09,4.673,4.083,7.439,4.083,7.439l.13,15.006v2.177l12.041-.14.07-2.037-.07-14.817a9.254,9.254,0,0,0,3.824-8.157S1166.224,345.445,1161.821,342.82Z" transform="translate(-933.484 -150.319)"/><polygon class="cls-12" points="196.591 173.973 196.547 169.515 249.074 169.463 248.972 174.004 196.591 173.973"/><polygon class="cls-12" points="248.336 170.186 248.266 173.281 197.306 173.251 197.277 170.236 248.336 170.186"/><polygon class="cls-6" points="234.523 283.329 234.646 232.464 243.859 232.464 243.725 283.354 243.002 283.361 234.523 283.329"/><polygon class="cls-6" points="243.134 233.187 243.005 282.629 243.005 282.639 235.247 282.609 235.367 233.187 243.134 233.187"/><path class="cls-13" d="M1155.877,375.013V359.7c-1-.8-4.078-3.586-4.013-7.347.081-4.585,2.732-10.02,9.934-10.254l.212-.007.182.108c4.553,2.716,4.918,8.494,4.942,9.058a9.9,9.9,0,0,1-3.82,8.566l.072,15.19Z" transform="translate(-933.484 -150.319)"/><path class="cls-13" d="M1166.414,351.316a9.254,9.254,0,0,1-3.824,8.157l.07,14.817H1156.6V359.344s-4.083-2.916-4.013-6.979c.07-3.934,2.166-9.316,9.235-9.545C1166.224,345.445,1166.414,351.316,1166.414,351.316Z" transform="translate(-933.484 -150.319)"/><polygon class="cls-12" points="216.343 223.249 229.924 223.249 229.805 226.722 216.343 226.878 216.343 223.249"/><polygon class="cls-12" points="229.176 223.971 229.106 226.008 217.065 226.148 217.065 223.971 223.116 223.971 229.176 223.971"/><path class="cls-6" d="M1149.833,375.013l-.133-15.359c-1.035-.791-4.169-3.545-4.087-7.823.159-8.887,6.054-10.877,10.971-10.982l.316,0a10.126,10.126,0,0,1,5.294,1.354l2.1,1.262-2.447.079c-7.981.259-8.511,7.406-8.537,8.836-.063,3.626,3.675,6.352,3.712,6.379l.3.216v16.041Z" transform="translate(-933.484 -150.319)"/><path class="cls-6" d="M1156.6,341.572a9.469,9.469,0,0,1,5.222,1.248c-7.069.229-9.165,5.611-9.235,9.545-.07,4.063,4.013,6.979,4.013,6.979V374.29h-6.05l-.13-15.006s-4.173-2.766-4.083-7.439C1146.4,348.481,1147.224,341.771,1156.6,341.572Z" transform="translate(-933.484 -150.319)"/><polygon class="cls-12" points="147.232 286.245 147.232 281.447 148.796 281.447 148.796 282.825 211.467 282.825 211.467 286.378 147.232 286.245"/><polygon class="cls-12" points="210.745 283.548 210.745 285.654 147.954 285.524 147.954 282.17 148.074 282.17 148.074 283.548 155.572 283.548 210.745 283.548"/><polygon class="cls-6" points="147.352 284.27 147.352 199.087 156.163 199.087 156.295 284.27 147.352 284.27"/><polygon class="cls-6" points="155.572 282.889 155.572 283.548 148.074 283.548 148.074 282.17 148.074 199.809 155.442 199.809 155.572 282.889"/><path class="cls-14" d="M1771.111,508.665c-.051,0-.1,0-.153,0a3.458,3.458,0,0,1-3.3-3.6c.725-16.68,9.239-34.194,21.185-43.581a3.456,3.456,0,0,1,4.271,5.435c-10.29,8.085-17.918,23.894-18.55,38.446A3.457,3.457,0,0,1,1771.111,508.665Z" transform="translate(-933.484 -150.319)"/><path class="cls-14" d="M1654.892,508.665c-.051,0-.1,0-.152,0a3.458,3.458,0,0,1-3.3-3.6c.725-16.68,9.238-34.194,21.185-43.581a3.456,3.456,0,0,1,4.271,5.435c-10.29,8.085-17.918,23.894-18.55,38.446A3.457,3.457,0,0,1,1654.892,508.665Z" transform="translate(-933.484 -150.319)"/><path class="cls-14" d="M1532.4,508.665c-.052,0-.1,0-.153,0a3.458,3.458,0,0,1-3.3-3.6c.725-16.68,9.239-34.194,21.185-43.581a3.456,3.456,0,0,1,4.271,5.435c-10.29,8.085-17.918,23.894-18.55,38.446A3.457,3.457,0,0,1,1532.4,508.665Z" transform="translate(-933.484 -150.319)"/></svg>